# File created by Blade
# Date/Time:  Tue Sep 28 14:35:47 2010
#---------------------------------------------------------
:version 1.10
:name HOM
:units
  mass 1.0
  length 1.000000
  angle deg
:documentation
     Acclaim Skeleton File
:root
   axis xyz
   order TX TY TZ RX RY RZ
   position 0.000000 0.000000 0.000000
   orientation 0 0 0
:bonedata
   begin
      id 1
      name LeftUpLeg_dum
      direction 1.000000 0.000000 0.000000
      length 3.677894
      axis 0.0 0.0 0.0 xyz
   end
   begin
      id 2
      name RightUpLeg_dum
      direction -1.000000 0.000000 0.000000
      length 3.677894
      axis 0.0 0.0 0.0 xyz
   end
   begin
      id 3
      name Spine_dum
      direction 0.000000 1.000000 0.000000
      length 0.039370
      axis 0.0 0.0 0.0 xyz
   end
   begin
      id 4
      name LeftUpLeg
      direction 0.000000 -1.000000 0.000000
      length 18.389491
      axis 0.0 0.0 0.0 xyz
      dof rx ry rz
   end
   begin
      id 5
      name LeftLeg
      direction 0.000000 -1.000000 0.000000
      length 16.918313
      axis 0.0 0.0 0.0 xyz
      dof rx ry rz
   end
   begin
      id 6
      name LeftFoot
      direction 0.000000 -0.258819 0.965926
      length 6.436326
      axis 15.0 0.0 0.0 xyz
      dof rx ry rz
   end
   begin
      id 7
      name LeftToeBase
      direction 0.000000 0.000000 1.000000
      length 2.952750
      axis 0.0 0.0 0.0 xyz
      dof rx ry rz
   end
   begin
      id 8
      name RightUpLeg
      direction 0.000000 -1.000000 0.000000
      length 18.389491
      axis 0.0 0.0 0.0 xyz
      dof rx ry rz
   end
   begin
      id 9
      name RightLeg
      direction 0.000000 -1.000000 0.000000
      length 16.918313
      axis 0.0 0.0 0.0 xyz
      dof rx ry rz
   end
   begin
      id 10
      name RightFoot
      direction 0.000000 -0.258819 0.965926
      length 6.436326
      axis 15.0 0.0 0.0 xyz
      dof rx ry rz
   end
   begin
      id 11
      name RightToeBase
      direction 0.000000 0.000000 1.000000
      length 2.952750
      axis 0.0 0.0 0.0 xyz
      dof rx ry rz
   end
   begin
      id 12
      name Spine
      direction 0.000000 1.000000 0.000000
      length 9.194745
      axis 0.0 0.0 0.0 xyz
      dof rx ry rz
   end
   begin
      id 13
      name Spine1
      direction 0.000000 1.000000 0.000000
      length 0.000000
      axis 0.0 0.0 0.0 xyz
      dof rx ry rz
   end
   begin
      id 14
      name Spine1_dum1
      direction 0.000000 1.000000 0.000000
      length 9.194745
      axis 0.0 0.0 0.0 xyz
   end
   begin
      id 15
      name Spine1_dum2
      direction 0.000000 1.000000 0.000000
      length 9.194745
      axis 0.0 0.0 0.0 xyz
   end
   begin
      id 16
      name Spine1_dum3
      direction 0.000000 1.000000 0.000000
      length 9.194745
      axis 0.0 0.0 0.0 xyz
   end
   begin
      id 17
      name Neck
      direction 0.000000 1.000000 0.000000
      length 4.229598
      axis 0.0 0.0 0.0 xyz
      dof rx ry rz
   end
   begin
      id 18
      name Head
      direction 0.000000 1.000000 0.000000
      length 4.527550
      axis 0.0 0.0 0.0 xyz
      dof rx ry rz
   end
   begin
      id 19
      name LeftShoulder
      direction 1.000000 -0.000004 0.000000
      length 5.516839
      axis 0.0 0.0 -90.0 xyz
      dof rx ry rz
   end
   begin
      id 20
      name LeftArm
      direction 1.000000 -0.000004 0.000000
      length 11.033679
      axis 0.0 0.0 -90.0 xyz
      dof rx ry rz
   end
   begin
      id 21
      name LeftForeArm
      direction 1.000000 -0.000004 0.000000
      length 10.114232
      axis 0.0 0.0 -90.0 xyz
      dof rx ry rz
   end
   begin
      id 22
      name LeftHand
      direction 0.000000 0.000000 0.000000
      length 0.000000
      axis 0.0 0.0 -90.0 xyz
      dof rx ry rz
   end
   begin
      id 23
      name LeftHand_dum1
      direction 0.000000 0.000000 0.000000
      length 0.000000
      axis 0.0 0.0 -90.0 xyz
   end
   begin
      id 24
      name LeftHand_dum2
      direction 1.000000 -0.000004 0.000000
      length 3.937000
      axis 0.0 0.0 -90.0 xyz
   end
   begin
      id 25
      name LeftHandThumb
      direction 0.000000 0.000000 1.000000
      length 3.937000
      axis 0.0 0.0 -90.0 xyz
      dof rx ry rz
   end
   begin
      id 26
      name RightShoulder
      direction -1.000000 -0.000004 0.000000
      length 5.516839
      axis 0.0 0.0 90.0 xyz
      dof rx ry rz
   end
   begin
      id 27
      name RightArm
      direction -1.000000 -0.000004 0.000000
      length 11.033679
      axis 0.0 0.0 90.0 xyz
      dof rx ry rz
   end
   begin
      id 28
      name RightForeArm
      direction -1.000000 -0.000004 0.000000
      length 10.114232
      axis 0.0 0.0 90.0 xyz
      dof rx ry rz
   end
   begin
      id 29
      name RightHand
      direction 0.000000 0.000000 0.000000
      length 0.000000
      axis 0.0 0.0 90.0 xyz
      dof rx ry rz
   end
   begin
      id 30
      name RightHand_dum1
      direction 0.000000 0.000000 0.000000
      length 0.000000
      axis 0.0 0.0 90.0 xyz
   end
   begin
      id 31
      name RightHand_dum2
      direction -1.000000 -0.000004 0.000000
      length 5.393690
      axis 0.0 0.0 90.0 xyz
   end
   begin
      id 32
      name RightHandThumb
      direction 0.000000 0.000000 1.000000
      length 3.937000
      axis 0.0 0.0 90.0 xyz
      dof rx ry rz
   end
:hierarchy
   begin
      root LeftUpLeg_dum RightUpLeg_dum Spine_dum
      LeftUpLeg_dum LeftUpLeg
      RightUpLeg_dum RightUpLeg
      Spine_dum Spine
      LeftUpLeg LeftLeg
      LeftLeg LeftFoot
      LeftFoot LeftToeBase
      RightUpLeg RightLeg
      RightLeg RightFoot
      RightFoot RightToeBase
      Spine Spine1
      Spine1 Spine1_dum1 Spine1_dum2 Spine1_dum3
      Spine1_dum1 Neck
      Spine1_dum2 LeftShoulder
      Spine1_dum3 RightShoulder
      Neck Head
      LeftShoulder LeftArm
      LeftArm LeftForeArm
      LeftForeArm LeftHand
      LeftHand LeftHand_dum1 LeftHand_dum2
      LeftHand_dum1 LeftHandThumb
      RightShoulder RightArm
      RightArm RightForeArm
      RightForeArm RightHand
      RightHand RightHand_dum1 RightHand_dum2
      RightHand_dum1 RightHandThumb
   end

# File created by Blade
# Date/Time:  Tue Sep 28 14:35:42 2010
# Frame Rate: 200.000 fps
#------------------------------------------------------
:FULLY-SPECIFIED
:DEGREES
81
root  0.423643 37.772572 -82.653673 7.931183 0.313108 -3.234637
LeftUpLeg  -9.267224 3.867464 1.941070
LeftLeg  13.481355 -0.000000 0.000000
LeftFoot  -1.370540 14.590919 5.587556
LeftToeBase  -9.364271 0.000000 -0.000000
RightUpLeg  -12.847139 -27.797140 8.563685
RightLeg  15.918053 -0.000000 0.000000
RightFoot  -1.672116 6.069630 -17.376831
RightToeBase  -9.150812 0.000000 -0.000000
Spine  -14.152927 -2.435148 0.766717
Spine1  10.394472 -1.102733 2.619231
Neck  14.995095 2.426586 -3.105906
Head  -13.211005 3.273862 2.879014
LeftShoulder  -10.255691 -9.746125 -14.311099
LeftArm  -0.294747 -15.337814 -8.744106
LeftForeArm  9.694891 -0.000000 0.000000
LeftHand  2.814027 7.510490 8.889052
LeftHandThumb  0.000000 -0.000000 0.000000
RightShoulder  -0.132795 10.091562 10.343471
RightArm  -0.597895 5.956710 7.356750
RightForeArm  5.230335 -0.000000 0.000000
RightHand  -0.227313 -5.278501 -7.024250
RightHandThumb  0.000000 -0.000000 0.000000
82
root  0.413283 37.767256 -82.643340 7.927994 0.348072 -3.220376
LeftUpLeg  -9.260945 3.874986 1.945687
LeftLeg  13.501015 -0.000000 0.000000
LeftFoot  -1.426299 14.561716 5.545146
LeftToeBase  -9.275901 0.000000 -0.000000
RightUpLeg  -12.839207 -27.778773 8.559905
RightLeg  15.958333 -0.000000 0.000000
RightFoot  -1.743239 5.978409 -17.408911
RightToeBase  -9.195886 0.000000 -0.000000
Spine  -14.172073 -2.456314 0.764928
Spine1  10.489066 -1.124813 2.633905
Neck  14.986612 2.393072 -3.126831
Head  -13.115726 3.199640 2.914474
LeftShoulder  -10.208491 -9.817236 -14.519052
LeftArm  -0.298431 -14.344234 -9.006202
LeftForeArm  9.797825 -0.000000 0.000000
LeftHand  2.713210 7.374095 8.710607
LeftHandThumb  0.000000 -0.000000 0.000000
RightShoulder  -0.119782 10.034618 10.541692
RightArm  -0.565402 5.831864 7.581274
RightForeArm  5.331639 -0.000000 0.000000
RightHand  -0.185821 -5.124932 -6.872846
RightHandThumb  0.000000 -0.000000 0.000000
83
root  0.401217 37.760862 -82.632883 7.922184 0.386931 -3.206273
LeftUpLeg  -9.254032 3.878569 1.953343
LeftLeg  13.523369 -0.000000 0.000000
LeftFoot  -1.481275 14.531045 5.539535
LeftToeBase  -9.285969 0.000000 -0.000000
RightUpLeg  -12.833749 -27.758171 8.556690
RightLeg  16.007116 -0.000000 0.000000
RightFoot  -1.810110 5.894960 -17.470759
RightToeBase  -9.381290 0.000000 -0.000000
Spine  -14.199888 -2.480034 0.760760
Spine1  10.581067 -1.148429 2.645916
Neck  14.982760 2.376846 -3.173446
Head  -13.001829 3.113249 2.889261
LeftShoulder  -10.170798 -9.795456 -14.739679
LeftArm  -0.285566 -13.421415 -9.280232
LeftForeArm  9.943036 -0.000000 0.000000
LeftHand  2.621095 7.130950 8.480184
LeftHandThumb  0.000000 -0.000000 0.000000
RightShoulder  -0.116568 9.955128 10.741934
RightArm  -0.537185 5.664705 7.812901
RightForeArm  5.499360 -0.000000 0.000000
RightHand  -0.193123 -5.113442 -6.656210
RightHandThumb  0.000000 -0.000000 0.000000
84
root  0.389766 37.754559 -82.626000 7.920693 0.434721 -3.191477
LeftUpLeg  -9.253480 3.869804 1.960973
LeftLeg  13.545605 -0.000000 0.000000
LeftFoot  -1.538979 14.513051 5.559196
LeftToeBase  -9.255720 0.000000 -0.000000
RightUpLeg  -12.833187 -27.745102 8.556072
RightLeg  16.042374 -0.000000 0.000000
RightFoot  -1.888661 5.810281 -17.453560
RightToeBase  -9.344972 0.000000 -0.000000
Spine  -14.218226 -2.506238 0.761404
Spine1  10.686636 -1.176633 2.659156
Neck  14.961341 2.380343 -3.207351
Head  -12.896687 3.050502 2.893621
LeftShoulder  -10.123672 -9.804296 -14.968601
LeftArm  -0.273997 -12.434658 -9.562943
LeftForeArm  10.081507 -0.000000 0.000000
LeftHand  2.544544 6.771104 8.251749
LeftHandThumb  0.000000 -0.000000 0.000000
RightShoulder  -0.112016 9.876380 10.947614
RightArm  -0.504469 5.492356 8.056854
RightForeArm  5.652205 -0.000000 0.000000
RightHand  -0.192518 -4.854920 -6.475008
RightHandThumb  0.000000 -0.000000 0.000000
85
root  0.375604 37.749607 -82.609593 7.916875 0.471127 -3.174325
LeftUpLeg  -9.243480 3.895308 1.966698
LeftLeg  13.578656 -0.000000 0.000000
LeftFoot  -1.576577 14.481662 5.606312
LeftToeBase  -9.280145 0.000000 -0.000000
RightUpLeg  -12.835461 -27.710701 8.559168
RightLeg  16.119550 -0.000000 0.000000
RightFoot  -1.940617 5.642604 -17.511017
RightToeBase  -9.435163 0.000000 -0.000000
Spine  -14.241265 -2.531190 0.762339
Spine1  10.786028 -1.203599 2.670287
Neck  14.958531 2.346649 -3.214785
Head  -12.821745 3.031733 2.860754
LeftShoulder  -10.095073 -9.782400 -15.206873
LeftArm  -0.263794 -11.513831 -9.850396
LeftForeArm  10.231812 -0.000000 0.000000
LeftHand  2.464954 6.312115 7.994148
LeftHandThumb  0.000000 -0.000000 0.000000
RightShoulder  -0.088942 10.091558 11.147681
RightArm  -0.540004 4.932159 8.315931
RightForeArm  5.813961 -0.000000 0.000000
RightHand  -0.165775 -4.686467 -6.287487
RightHandThumb  0.000000 -0.000000 0.000000
86
root  0.360883 37.742912 -82.600020 7.920249 0.500640 -3.158191
LeftUpLeg  -9.240620 3.908463 1.976823
LeftLeg  13.595651 -0.000000 0.000000
LeftFoot  -1.658926 14.440205 5.560001
LeftToeBase  -9.228134 0.000000 -0.000000
RightUpLeg  -12.801851 -27.641954 8.538855
RightLeg  16.119815 -0.000000 0.000000
RightFoot  -2.039540 5.597186 -17.437770
RightToeBase  -9.327697 0.000000 -0.000000
Spine  -14.265190 -2.554061 0.758638
Spine1  10.895655 -1.227203 2.679820
Neck  14.925438 2.331871 -3.242556
Head  -12.768568 2.980190 2.834738
LeftShoulder  -10.062900 -9.758401 -15.447483
LeftArm  -0.249957 -10.525203 -10.140695
LeftForeArm  10.408193 -0.000000 0.000000
LeftHand  2.396785 5.873200 7.734484
LeftHandThumb  0.000000 -0.000000 0.000000
RightShoulder  -0.077647 10.115268 11.353653
RightArm  -0.540072 4.589835 8.593829
RightForeArm  6.025922 -0.000000 0.000000
RightHand  -0.182359 -4.754379 -6.069976
RightHandThumb  0.000000 -0.000000 0.000000
87
root  0.347422 37.737222 -82.587659 7.918031 0.536393 -3.141686
LeftUpLeg  -9.231479 3.917177 1.984251
LeftLeg  13.618968 -0.000000 0.000000
LeftFoot  -1.709267 14.412600 5.572006
LeftToeBase  -9.256759 0.000000 -0.000000
RightUpLeg  -12.794493 -27.593501 8.541130
RightLeg  16.156412 -0.000000 0.000000
RightFoot  -2.084260 5.447584 -17.458120
RightToeBase  -9.318011 0.000000 -0.000000
Spine  -14.295215 -2.576074 0.755583
Spine1  11.001404 -1.250042 2.691173
Neck  14.865246 2.323577 -3.280102
Head  -12.674511 2.900792 2.819014
LeftShoulder  -10.030712 -9.726139 -15.693048
LeftArm  -0.235371 -9.501764 -10.434562
LeftForeArm  10.593828 -0.000000 0.000000
LeftHand  2.333667 5.338452 7.479580
LeftHandThumb  0.000000 -0.000000 0.000000
RightShoulder  -0.067562 10.092823 11.563838
RightArm  -0.535506 4.190586 8.878188
RightForeArm  6.242988 -0.000000 0.000000
RightHand  -0.210628 -4.611766 -5.862738
RightHandThumb  0.000000 -0.000000 0.000000
88
root  0.332639 37.731313 -82.575433 7.919239 0.571437 -3.124440
LeftUpLeg  -9.222250 3.928079 1.992882
LeftLeg  13.633218 -0.000000 0.000000
LeftFoot  -1.770134 14.374381 5.573884
LeftToeBase  -9.239347 0.000000 -0.000000
RightUpLeg  -12.784085 -27.519975 8.535388
RightLeg  16.191233 -0.000000 0.000000
RightFoot  -2.139661 5.313721 -17.456352
RightToeBase  -9.329514 0.000000 -0.000000
Spine  -14.318603 -2.596363 0.755083
Spine1  11.113879 -1.272350 2.705292
Neck  14.815723 2.326125 -3.324653
Head  -12.590184 2.822508 2.808015
LeftShoulder  -10.000051 -9.687126 -15.948698
LeftArm  -0.215412 -8.533215 -10.735832
LeftForeArm  10.794084 -0.000000 0.000000
LeftHand  2.312053 4.757942 7.234585
LeftHandThumb  0.000000 -0.000000 0.000000
RightShoulder  -0.051900 10.074499 11.784604
RightArm  -0.527202 3.815515 9.170634
RightForeArm  6.440230 -0.000000 0.000000
RightHand  -0.148333 -4.436546 -5.658320
RightHandThumb  0.000000 -0.000000 0.000000
89
root  0.314320 37.727934 -82.554594 7.915552 0.677560 -3.096152
LeftUpLeg  -9.190176 3.888117 2.011255
LeftLeg  13.627598 -0.000000 0.000000
LeftFoot  -1.809218 14.278647 5.498108
LeftToeBase  -9.358399 0.000000 -0.000000
RightUpLeg  -12.786592 -27.370076 8.526631
RightLeg  16.300137 -0.000000 0.000000
RightFoot  -2.178746 4.952428 -17.517887
RightToeBase  -9.252864 0.000000 -0.000000
Spine  -14.416539 -2.664911 0.726469
Spine1  11.415812 -1.335575 2.738663
Neck  14.585379 2.322856 -3.397548
Head  -12.568176 2.700102 2.770832
LeftShoulder  -10.030640 -9.114333 -16.285691
LeftArm  -0.074318 -7.509584 -11.089857
LeftForeArm  11.050731 -0.000000 0.000000
LeftHand  3.095250 2.450178 7.305812
LeftHandThumb  0.000000 -0.000000 0.000000
RightShoulder  -0.108523 9.607345 12.033074
RightArm  -0.524878 1.950053 9.543851
RightForeArm  6.901949 -0.000000 0.000000
RightHand  0.613571 -2.498927 -7.799587
RightHandThumb  0.000000 -0.000000 0.000000
90
root  0.299463 37.721132 -82.540407 7.920049 0.710542 -3.075784
LeftUpLeg  -9.184196 3.870573 2.018214
LeftLeg  13.644556 -0.000000 0.000000
LeftFoot  -1.872705 14.275338 5.506337
LeftToeBase  -9.347940 0.000000 -0.000000
RightUpLeg  -12.779795 -27.355043 8.524037
RightLeg  16.336442 -0.000000 0.000000
RightFoot  -2.265712 4.881068 -17.521413
RightToeBase  -9.463266 0.000000 -0.000000
Spine  -14.461814 -2.691457 0.725644
Spine1  11.560430 -1.364488 2.762178
Neck  14.481641 2.328807 -3.449191
Head  -12.494668 2.614914 2.776049
LeftShoulder  -9.997614 -9.280059 -16.530890
LeftArm  -0.058672 -6.589810 -11.375973
LeftForeArm  11.201122 -0.000000 0.000000
LeftHand  2.865946 2.726552 6.887277
LeftHandThumb  0.000000 -0.000000 0.000000
RightShoulder  -0.066236 9.984038 12.234997
RightArm  -0.536568 1.419169 9.818623
RightForeArm  7.021568 -0.000000 0.000000
RightHand  0.601553 -3.129945 -7.072295
RightHandThumb  0.000000 -0.000000 0.000000
91
root  0.286359 37.714235 -82.527710 7.926090 0.728077 -3.061897
LeftUpLeg  -9.175695 3.849303 2.024614
LeftLeg  13.663200 -0.000000 0.000000
LeftFoot  -1.895557 14.296889 5.601051
LeftToeBase  -9.363616 0.000000 -0.000000
RightUpLeg  -12.775957 -27.328991 8.524537
RightLeg  16.366344 -0.000000 0.000000
RightFoot  -2.312013 4.814835 -17.443649
RightToeBase  -9.567822 0.000000 -0.000000
Spine  -14.478842 -2.702251 0.730633
Spine1  11.634201 -1.378559 2.778638
Neck  14.473328 2.317192 -3.498753
Head  -12.403041 2.533088 2.778344
LeftShoulder  -9.935338 -9.515088 -16.759003
LeftArm  -0.111910 -5.421790 -11.672488
LeftForeArm  11.372150 -0.000000 0.000000
LeftHand  2.736507 2.332461 6.639709
LeftHandThumb  0.000000 -0.000000 0.000000
RightShoulder  -0.048946 9.927604 12.450444
RightArm  -0.526561 1.078702 10.115219
RightForeArm  7.248829 -0.000000 0.000000
RightHand  0.381618 -3.178787 -6.559123
RightHandThumb  0.000000 -0.000000 0.000000
92
root  0.268592 37.712198 -82.512043 7.934164 0.759422 -3.043754
LeftUpLeg  -9.166137 3.818635 2.039913
LeftLeg  13.671926 -0.000000 0.000000
LeftFoot  -1.944451 14.308146 5.507547
LeftToeBase  -9.413511 0.000000 -0.000000
RightUpLeg  -12.761609 -27.239819 8.519420
RightLeg  16.405417 -0.000000 0.000000
RightFoot  -2.381127 4.667446 -17.490466
RightToeBase  -9.458835 0.000000 -0.000000
Spine  -14.529408 -2.734324 0.718403
Spine1  11.789455 -1.409030 2.794954
Neck  14.358794 2.311103 -3.547275
Head  -12.319467 2.444242 2.820708
LeftShoulder  -9.961771 -9.214930 -17.058006
LeftArm  -0.067426 -4.692086 -12.013056
LeftForeArm  11.706903 -0.000000 0.000000
LeftHand  3.129156 2.108618 6.431620
LeftHandThumb  0.000000 -0.000000 0.000000
RightShoulder  -0.075814 9.678186 12.658938
RightArm  -0.500292 0.384867 10.452953
RightForeArm  7.654166 -0.000000 0.000000
RightHand  0.868758 -2.642063 -5.888883
RightHandThumb  0.000000 -0.000000 0.000000
